<svg preserveAspectRatio="none" width="100%" height="100%" overflow="visible" style="display: block;" viewBox="0 0 8.79188 9.83813" fill="none" xmlns="http://www.w3.org/2000/svg">
<path id="&#244;&#128;&#138;&#132;" d="M0.77625 9.83812C0.55125 9.83812 0.365625 9.75562 0.219375 9.59062C0.073125 9.42562 0 9.20437 0 8.92687V0.905625C0 0.628125 0.073125 0.40875 0.219375 0.2475C0.365625 0.0825 0.55125 0 0.77625 0C0.89625 0 1.01063 0.020625 1.11938 0.061875C1.23188 0.103125 1.35188 0.159375 1.47938 0.230625L8.11125 4.0725C8.355 4.21125 8.52938 4.3425 8.63438 4.46625C8.73938 4.59 8.79188 4.74 8.79188 4.91625C8.79188 5.0925 8.73938 5.2425 8.63438 5.36625C8.52938 5.49 8.355 5.62312 8.11125 5.76562L1.47938 9.60187C1.35188 9.67687 1.23188 9.735 1.11938 9.77625C1.01063 9.8175 0.89625 9.83812 0.77625 9.83812Z" fill="var(--fill-0, #040F1F)"/>
</svg>
