<svg preserveAspectRatio="none" width="100%" height="100%" overflow="visible" style="display: block;" viewBox="0 0 375 43" fill="none" xmlns="http://www.w3.org/2000/svg">
<g id="Status">
<g id="Time Style">
<g id="9:41">
<path d="M31.3646 16.1675C33.6205 16.1675 35.5834 17.7715 35.5834 21.5801V21.5947C35.5834 25.1543 33.9794 27.2637 31.3207 27.2637C29.3798 27.2637 27.9296 26.1138 27.5927 24.4951L27.578 24.4146H29.4384L29.4604 24.4878C29.7387 25.2275 30.3905 25.7109 31.3207 25.7109C32.9979 25.7109 33.7084 24.0703 33.789 22.0488C33.789 21.9683 33.7963 21.8877 33.7963 21.8071H33.6498C33.2616 22.6421 32.3388 23.3818 30.8886 23.3818C28.8598 23.3818 27.4389 21.9023 27.4389 19.8955V19.8809C27.4389 17.7349 29.0722 16.1675 31.3646 16.1675ZM31.3573 21.9316C32.5512 21.9316 33.4667 21.0674 33.4667 19.8735V19.8589C33.4667 18.6504 32.5512 17.7056 31.3793 17.7056C30.2147 17.7056 29.2846 18.6357 29.2846 19.8149V19.8296C29.2846 21.0527 30.1562 21.9316 31.3573 21.9316Z" fill="var(--fill-0, white)"/>
<path d="M38.6086 20.1519C37.9421 20.1519 37.444 19.6392 37.444 18.9946C37.444 18.3428 37.9421 17.8374 38.6086 17.8374C39.2824 17.8374 39.7731 18.3428 39.7731 18.9946C39.7731 19.6392 39.2824 20.1519 38.6086 20.1519ZM38.6086 25.5864C37.9421 25.5864 37.444 25.0811 37.444 24.4292C37.444 23.7773 37.9421 23.272 38.6086 23.272C39.2824 23.272 39.7731 23.7773 39.7731 24.4292C39.7731 25.0811 39.2824 25.5864 38.6086 25.5864Z" fill="var(--fill-0, white)"/>
<path d="M46.7607 27V24.9712H41.5898V23.4258C42.9595 21.0454 44.4609 18.6138 45.8965 16.4312H48.5698V23.4111H49.9907V24.9712H48.5698V27H46.7607ZM43.3477 23.4551H46.79V17.9399H46.6802C45.5962 19.5952 44.373 21.5508 43.3477 23.3452V23.4551Z" fill="var(--fill-0, white)"/>
<path d="M54.0706 27V18.2915H53.9461L51.3167 20.1519V18.3721L54.0779 16.4312H55.9603V27H54.0706Z" fill="var(--fill-0, white)"/>
</g>
</g>
<g id="Spacer">
</g>
<path id="Mobile Signal" d="M297.4 22.8337C297.952 22.8337 298.4 23.2814 298.4 23.8337V25.8337C298.399 26.3858 297.952 26.8337 297.4 26.8337H296.4C295.847 26.8337 295.4 26.3858 295.4 25.8337V23.8337C295.4 23.2814 295.847 22.8337 296.4 22.8337H297.4ZM302.067 20.8337C302.619 20.8338 303.067 21.2815 303.067 21.8337V25.8337C303.066 26.3857 302.619 26.8335 302.067 26.8337H301.067C300.514 26.8337 300.067 26.3858 300.067 25.8337V21.8337C300.067 21.2814 300.514 20.8337 301.067 20.8337H302.067ZM306.733 18.4997C307.285 18.4997 307.732 18.9475 307.733 19.4997V25.8337C307.732 26.3858 307.285 26.8337 306.733 26.8337H305.733C305.181 26.8335 304.733 26.3857 304.733 25.8337V19.4997C304.733 18.9476 305.181 18.4998 305.733 18.4997H306.733ZM311.4 16.1667C311.952 16.1667 312.4 16.6144 312.4 17.1667V25.8337C312.399 26.3858 311.952 26.8337 311.4 26.8337H310.4C309.847 26.8337 309.4 26.3858 309.4 25.8337V17.1667C309.4 16.6144 309.847 16.1667 310.4 16.1667H311.4Z" fill="var(--fill-0, white)"/>
<path id="Wifi" d="M321.826 24.4176C323.102 23.3387 324.971 23.3387 326.246 24.4176C326.31 24.4756 326.347 24.5578 326.349 24.6442C326.351 24.7306 326.317 24.8141 326.255 24.8746L324.258 26.8903C324.199 26.9495 324.12 26.983 324.036 26.983C323.953 26.983 323.873 26.9495 323.815 26.8903L321.817 24.8746C321.755 24.814 321.721 24.7306 321.723 24.6442C321.725 24.5577 321.762 24.4756 321.826 24.4176ZM319.161 21.7282C321.909 19.1721 326.165 19.1722 328.913 21.7282C328.975 21.788 329.011 21.8705 329.012 21.9567C329.013 22.0428 328.979 22.126 328.918 22.1871L327.764 23.3541C327.645 23.4732 327.452 23.4759 327.33 23.36C326.428 22.5428 325.254 22.0904 324.036 22.0905C322.82 22.091 321.646 22.5433 320.744 23.36C320.622 23.4758 320.43 23.4732 320.311 23.3541L319.156 22.1871C319.096 22.1261 319.062 22.0428 319.063 21.9567C319.064 21.8705 319.099 21.788 319.161 21.7282ZM316.496 19.0465C320.711 15.0073 327.361 15.0071 331.576 19.0465C331.637 19.1065 331.671 19.1886 331.672 19.274C331.673 19.3596 331.639 19.4418 331.578 19.5026L330.422 20.6696C330.303 20.789 330.11 20.7903 329.989 20.6725C328.384 19.1458 326.252 18.2947 324.036 18.2946C321.82 18.2946 319.688 19.1456 318.082 20.6725C317.961 20.7905 317.769 20.7893 317.65 20.6696L316.493 19.5026C316.433 19.4418 316.399 19.3596 316.4 19.274C316.4 19.1885 316.435 19.1064 316.496 19.0465Z" fill="var(--fill-0, white)"/>
<g id="Battery">
<path id="Rectangle" opacity="0.35" d="M338.339 16.3333H355.005C356.202 16.3333 357.172 17.3037 357.172 18.5003V24.5003C357.172 25.6968 356.201 26.6663 355.005 26.6663H338.339C337.142 26.6663 336.172 25.6968 336.172 24.5003V18.5003C336.172 17.3037 337.142 16.3333 338.339 16.3333Z" stroke="var(--stroke-0, white)"/>
<path id="Combined Shape" opacity="0.4" d="M358.672 19.5V23.5C359.477 23.1612 360 22.3731 360 21.5C360 20.6269 359.477 19.8388 358.672 19.5" fill="var(--fill-0, white)"/>
<path id="Rectangle_2" d="M337.672 19.1667C337.672 18.4303 338.269 17.8333 339.005 17.8333H354.339C355.075 17.8333 355.672 18.4303 355.672 19.1667V23.8333C355.672 24.5697 355.075 25.1667 354.339 25.1667H339.005C338.269 25.1667 337.672 24.5697 337.672 23.8333V19.1667Z" fill="var(--fill-0, white)"/>
</g>
</g>
</svg>
